<svg xmlns="http://www.w3.org/2000/svg" width="132.16" height="28.48" viewBox="0 0 132.16 28.48">
    <path d="M26.96-6.68A15.368,15.368,0,0,0,28.68-14a15.368,15.368,0,0,0-1.72-7.32,12.725,12.725,0,0,0-4.82-5.08,13.566,13.566,0,0,0-7.06-1.84A13.566,13.566,0,0,0,8.02-26.4,12.725,12.725,0,0,0,3.2-21.32,15.367,15.367,0,0,0,1.48-14,15.367,15.367,0,0,0,3.2-6.68,12.725,12.725,0,0,0,8.02-1.6,13.566,13.566,0,0,0,15.08.24,13.566,13.566,0,0,0,22.14-1.6,12.725,12.725,0,0,0,26.96-6.68ZM7.32-8.74A12.031,12.031,0,0,1,6.2-14a12.031,12.031,0,0,1,1.12-5.26,8.658,8.658,0,0,1,3.14-3.64,8.349,8.349,0,0,1,4.62-1.3,8.349,8.349,0,0,1,4.62,1.3,8.658,8.658,0,0,1,3.14,3.64A12.031,12.031,0,0,1,23.96-14a12.031,12.031,0,0,1-1.12,5.26A8.658,8.658,0,0,1,19.7-5.1a8.349,8.349,0,0,1-4.62,1.3,8.349,8.349,0,0,1-4.62-1.3A8.658,8.658,0,0,1,7.32-8.74ZM31.64-28l4.76,5.56h3.32L36.64-28Zm17.38,9.52a8.156,8.156,0,0,0-5.94-2.24,7.9,7.9,0,0,0-6.56,2.92l-.48-2.68H32.28V0H36.6V-10.32a7.509,7.509,0,0,1,1.46-4.9A4.917,4.917,0,0,1,42.08-17a4.423,4.423,0,0,1,3.64,1.52,6.883,6.883,0,0,1,1.24,4.44V0h4.36V-11.28Q51.32-16.24,49.02-18.48ZM75.12-28H70.8v10.36a7.168,7.168,0,0,0-2.72-2.26,8.838,8.838,0,0,0-3.92-.82,9.564,9.564,0,0,0-4.96,1.3,9.131,9.131,0,0,0-3.46,3.68,11.582,11.582,0,0,0-1.26,5.5,11.916,11.916,0,0,0,1.24,5.58,8.731,8.731,0,0,0,3.44,3.64,9.879,9.879,0,0,0,5,1.26,7.843,7.843,0,0,0,6.68-3.32L71.36,0h3.76ZM69.2-5.28A5.454,5.454,0,0,1,64.88-3.4a5.429,5.429,0,0,1-4.32-1.9,7.292,7.292,0,0,1-1.64-4.94,7.232,7.232,0,0,1,1.64-4.9,5.429,5.429,0,0,1,4.32-1.9,5.429,5.429,0,0,1,4.32,1.9,7.352,7.352,0,0,1,1.64,4.98A7.155,7.155,0,0,1,69.2-5.28Zm21.48-15.2h-.96a7.419,7.419,0,0,0-3.76.82,6.49,6.49,0,0,0-2.28,2.26l-.48-3.08H79.36V0h4.32V-10.28a7.614,7.614,0,0,1,1.2-4.42,4.376,4.376,0,0,1,3.88-1.74h1.92Zm2.3,4.74a11.67,11.67,0,0,0-1.26,5.54,11.175,11.175,0,0,0,1.3,5.48A9.09,9.09,0,0,0,96.7-1.06a11.463,11.463,0,0,0,5.58,1.3,9.416,9.416,0,0,0,6.14-2,8.286,8.286,0,0,0,3.02-5.12h-4.32a4.45,4.45,0,0,1-1.8,2.66,5.768,5.768,0,0,1-3.36.94,5.384,5.384,0,0,1-4.04-1.56,6.391,6.391,0,0,1-1.68-4.24v-.24h15.44a11.591,11.591,0,0,0,.12-1.64,10.236,10.236,0,0,0-1.34-5.16,8.914,8.914,0,0,0-3.56-3.4,10.965,10.965,0,0,0-5.22-1.2,10.2,10.2,0,0,0-5.18,1.3A9.009,9.009,0,0,0,92.98-15.74Zm14.42,3.26h-11a5.077,5.077,0,0,1,1.78-3.46,5.491,5.491,0,0,1,3.66-1.3,5.676,5.676,0,0,1,3.78,1.26A5.217,5.217,0,0,1,107.4-12.48Zm26.24-8h-4.32v10.16a7.979,7.979,0,0,1-1.4,4.98,4.621,4.621,0,0,1-3.88,1.82,4.213,4.213,0,0,1-3.56-1.56,7.379,7.379,0,0,1-1.2-4.56V-20.48h-4.32V-9.2q0,4.96,2.24,7.2A7.9,7.9,0,0,0,123.04.24a7.726,7.726,0,0,0,6.32-2.84l.48,2.6h3.8Z" transform="translate(-1.48 28.24)" fill="#6d006f"/>
</svg>