<svg xmlns="http://www.w3.org/2000/svg" width="24" height="14.401" viewBox="0 0 24 14.401">
    <path id="Shape_1" data-name="Shape 1" d="M1297.078,591.4c-.267,0-.541-.006-.813-.018a14.553,14.553,0,0,1-5.674-1.285c-1.67-.824-2.59-1.952-2.59-3.176V581.48a2.4,2.4,0,0,1,.016-.278c.142-1.225,1.21-2.326,3.009-3.1a15.732,15.732,0,0,1,6.052-1.1,15.5,15.5,0,0,1,6.212,1.172c1.848.836,2.865,2.011,2.865,3.308v3.065H1312V591.4Zm11.911-3.278v1.864h1.542v-4.028H1296.14l-.049-.025h-.012c-.1,0-.2-.011-.294-.017l-.1-.007-.244-.019-.166-.015-.057-.005a15.038,15.038,0,0,1-3.5-.743c-.038-.013-.076-.026-.112-.04s-.068-.024-.1-.037c-.074-.027-.146-.055-.217-.083l-.047-.019c-.081-.032-.162-.067-.242-.1l0,0-.01,0c-.065-.028-.13-.057-.192-.086l-.027-.012-.177-.085-.015-.008-.036-.017-.141-.073-.073-.039-.092-.05-.092-.052-.008-.005a6.75,6.75,0,0,1-.664-.433v2.942c0,.633.606,1.3,1.667,1.855v-2.405h1.469v2.995a13.269,13.269,0,0,0,1.822.417v-1.66h1.469v1.824c.144.01.288.017.433.024.252.011.5.016.75.016h.6v-3.011h1.469v3.011h1.822v-1.864h1.469v1.864h1.786v-3.011h1.47v3.011h1.822v-1.864Zm-5.207-3.578h.9v-.568A6.726,6.726,0,0,1,1303.782,584.545Zm-14.306-3.187c0,.041-.006.082-.008.122,0,.022,0,.042,0,.064s0,.029,0,.044,0,.012,0,.017c.075.6.674,1.223,1.674,1.739l.018.009.081.041.055.027.057.028.1.047.013.005.122.054a13.386,13.386,0,0,0,4.39.956l.017,0c.106.006.213.011.32.016.252.011.5.015.75.015,4.483,0,7.607-1.615,7.607-3.065s-3.125-3.066-7.607-3.066C1292.734,578.414,1289.641,579.937,1289.476,581.358Zm7.35,1.876c-1.656-.069-2.813-.791-2.813-1.754a1.094,1.094,0,0,1,.009-.134c.11-.958,1.366-1.627,3.055-1.627,1.776,0,3.064.74,3.064,1.76s-1.288,1.759-3.064,1.759C1297,583.239,1296.911,583.238,1296.827,583.234Zm-1.275-1.755a2.7,2.7,0,0,0,1.34.343c.062,0,.124,0,.186,0a.8.8,0,1,0-1.526-.347Z" transform="translate(-1288 -577)"/>
</svg>
